<?xml version="1.0" encoding="utf-8"?>
<!-- Generator: Adobe Illustrator 28.0.0, SVG Export Plug-In . SVG Version: 6.00 Build 0)  -->
<svg version="1.1" xmlns="http://www.w3.org/2000/svg" xmlns:xlink="http://www.w3.org/1999/xlink" x="0px" y="0px"
	 viewBox="0 0 100 100" style="enable-background:new 0 0 100 100;" xml:space="preserve">
<style type="text/css">
	.st0{fill:#802626;}
	.st1{fill:#590F20;}
	.st2{opacity:0.44;fill:#FFFFFF;}
</style>
<g id="Calque_1">
</g>
<g id="Calque_2">
	<g>
		<rect x="2.62" y="2.88" class="st0" width="94.12" height="94.12"/>
		<path class="st1" d="M92.25,7.38V92.5H7.12V7.38H92.25 M101.25-1.62h-9H7.12h-9v9V92.5v9h9h85.12h9v-9V7.38V-1.62L101.25-1.62z"/>
	</g>
</g>
<g id="Calque_3">
	<polygon class="st2" points="80.72,67.07 61.97,62.86 64.81,81.87 52.12,67.44 43.25,84.49 41.46,65.36 24.27,73.94 34.07,57.41 
		15.12,54.24 32.76,46.63 19.28,32.93 38.03,37.14 35.19,18.13 47.88,32.56 56.75,15.51 58.54,34.64 75.73,26.06 65.93,42.59 
		84.88,45.76 67.24,53.37 	"/>
</g>
</svg>
